<mxfile host="app.diagrams.net" modified="2022-05-20T15:45:33.460Z" agent="5.0 (Windows NT 10.0; Win64; x64) AppleWebKit/537.36 (KHTML, like Gecko) Chrome/101.0.4951.54 Safari/537.36 Edg/101.0.1210.39" etag="w1bAx8seUUceJp2QqCi5" version="18.0.8" type="github">
  <diagram id="o6wPQjGqY2JazTJ8GNIp" name="Page-1">
    <mxGraphModel dx="357" dy="540" grid="1" gridSize="10" guides="1" tooltips="1" connect="1" arrows="1" fold="1" page="1" pageScale="1" pageWidth="827" pageHeight="1169" math="0" shadow="0">
      <root>
        <mxCell id="0" />
        <mxCell id="1" parent="0" />
        <mxCell id="ep8b0DQyYozTBDZ_ObIT-1" value="Preprocessing of the raw counts data" style="rounded=1;whiteSpace=wrap;html=1;fillColor=#CCCCFF;strokeColor=#666666;fontColor=#333333;" vertex="1" parent="1">
          <mxGeometry x="140" y="120" width="100" height="60" as="geometry" />
        </mxCell>
        <mxCell id="ep8b0DQyYozTBDZ_ObIT-12" style="edgeStyle=orthogonalEdgeStyle;rounded=0;orthogonalLoop=1;jettySize=auto;html=1;exitX=0;exitY=0.5;exitDx=0;exitDy=0;entryX=0;entryY=0.5;entryDx=0;entryDy=0;" edge="1" parent="1" source="ep8b0DQyYozTBDZ_ObIT-3" target="ep8b0DQyYozTBDZ_ObIT-6">
          <mxGeometry relative="1" as="geometry">
            <Array as="points">
              <mxPoint x="120" y="430" />
              <mxPoint x="120" y="340" />
            </Array>
          </mxGeometry>
        </mxCell>
        <mxCell id="ep8b0DQyYozTBDZ_ObIT-32" value="" style="edgeStyle=orthogonalEdgeStyle;rounded=0;orthogonalLoop=1;jettySize=auto;html=1;" edge="1" parent="1" source="ep8b0DQyYozTBDZ_ObIT-3" target="ep8b0DQyYozTBDZ_ObIT-27">
          <mxGeometry relative="1" as="geometry" />
        </mxCell>
        <mxCell id="ep8b0DQyYozTBDZ_ObIT-3" value="Threshold selection and low expressed genes removal" style="rounded=0;whiteSpace=wrap;html=1;fillColor=#CCCCFF;" vertex="1" parent="1">
          <mxGeometry x="140" y="400" width="100" height="60" as="geometry" />
        </mxCell>
        <mxCell id="ep8b0DQyYozTBDZ_ObIT-5" value="PCA&amp;nbsp; visualization" style="rounded=0;whiteSpace=wrap;html=1;fillColor=#CCCCFF;" vertex="1" parent="1">
          <mxGeometry x="140" y="560" width="100" height="40" as="geometry" />
        </mxCell>
        <mxCell id="ep8b0DQyYozTBDZ_ObIT-11" style="edgeStyle=orthogonalEdgeStyle;rounded=0;orthogonalLoop=1;jettySize=auto;html=1;exitX=0.5;exitY=1;exitDx=0;exitDy=0;entryX=0.5;entryY=0;entryDx=0;entryDy=0;" edge="1" parent="1" source="ep8b0DQyYozTBDZ_ObIT-6" target="ep8b0DQyYozTBDZ_ObIT-3">
          <mxGeometry relative="1" as="geometry" />
        </mxCell>
        <mxCell id="ep8b0DQyYozTBDZ_ObIT-6" value="Visualizing log-transformed count data with violin plots" style="rounded=0;whiteSpace=wrap;html=1;fillColor=#CCCCFF;" vertex="1" parent="1">
          <mxGeometry x="140" y="310" width="100" height="60" as="geometry" />
        </mxCell>
        <mxCell id="ep8b0DQyYozTBDZ_ObIT-39" style="edgeStyle=orthogonalEdgeStyle;rounded=0;orthogonalLoop=1;jettySize=auto;html=1;entryX=0.5;entryY=0;entryDx=0;entryDy=0;" edge="1" parent="1" source="ep8b0DQyYozTBDZ_ObIT-8" target="ep8b0DQyYozTBDZ_ObIT-37">
          <mxGeometry relative="1" as="geometry" />
        </mxCell>
        <mxCell id="ep8b0DQyYozTBDZ_ObIT-8" value="DEA with limma package&amp;nbsp;" style="rounded=0;whiteSpace=wrap;html=1;fillColor=#FFCCE6;" vertex="1" parent="1">
          <mxGeometry x="300" y="307.5" width="100" height="45" as="geometry" />
        </mxCell>
        <mxCell id="ep8b0DQyYozTBDZ_ObIT-17" style="edgeStyle=orthogonalEdgeStyle;rounded=0;orthogonalLoop=1;jettySize=auto;html=1;exitX=0.5;exitY=1;exitDx=0;exitDy=0;entryX=0.5;entryY=0;entryDx=0;entryDy=0;" edge="1" parent="1" source="ep8b0DQyYozTBDZ_ObIT-16" target="ep8b0DQyYozTBDZ_ObIT-6">
          <mxGeometry relative="1" as="geometry" />
        </mxCell>
        <mxCell id="ep8b0DQyYozTBDZ_ObIT-16" value="&lt;span style=&quot;&quot;&gt;raw RNA-seq counts of AML patients &lt;br&gt;and HDs&lt;/span&gt;" style="ellipse;whiteSpace=wrap;html=1;rounded=1;fillColor=#CCCCFF;" vertex="1" parent="1">
          <mxGeometry x="130" y="200" width="120" height="80" as="geometry" />
        </mxCell>
        <mxCell id="ep8b0DQyYozTBDZ_ObIT-38" style="edgeStyle=orthogonalEdgeStyle;rounded=0;orthogonalLoop=1;jettySize=auto;html=1;exitX=0.5;exitY=1;exitDx=0;exitDy=0;entryX=0.5;entryY=0;entryDx=0;entryDy=0;" edge="1" parent="1" source="ep8b0DQyYozTBDZ_ObIT-18" target="ep8b0DQyYozTBDZ_ObIT-8">
          <mxGeometry relative="1" as="geometry" />
        </mxCell>
        <mxCell id="ep8b0DQyYozTBDZ_ObIT-49" style="edgeStyle=orthogonalEdgeStyle;rounded=0;orthogonalLoop=1;jettySize=auto;html=1;entryX=0;entryY=0.5;entryDx=0;entryDy=0;strokeColor=#000000;fillColor=#000000;" edge="1" parent="1" source="ep8b0DQyYozTBDZ_ObIT-18" target="ep8b0DQyYozTBDZ_ObIT-47">
          <mxGeometry relative="1" as="geometry" />
        </mxCell>
        <mxCell id="ep8b0DQyYozTBDZ_ObIT-18" value="Normalized &lt;br&gt;RNA-seq data" style="ellipse;whiteSpace=wrap;html=1;rounded=1;fillColor=#FFCCE6;" vertex="1" parent="1">
          <mxGeometry x="300" y="210" width="100" height="70" as="geometry" />
        </mxCell>
        <mxCell id="ep8b0DQyYozTBDZ_ObIT-23" value="Differential expression analysis&amp;nbsp;" style="rounded=1;whiteSpace=wrap;html=1;fillColor=#FFCCE6;strokeColor=#666666;fontColor=#333333;" vertex="1" parent="1">
          <mxGeometry x="300" y="120" width="100" height="60" as="geometry" />
        </mxCell>
        <mxCell id="ep8b0DQyYozTBDZ_ObIT-34" style="edgeStyle=orthogonalEdgeStyle;rounded=0;orthogonalLoop=1;jettySize=auto;html=1;entryX=0.5;entryY=0;entryDx=0;entryDy=0;" edge="1" parent="1" source="ep8b0DQyYozTBDZ_ObIT-27">
          <mxGeometry relative="1" as="geometry">
            <mxPoint x="190" y="560" as="targetPoint" />
          </mxGeometry>
        </mxCell>
        <mxCell id="ep8b0DQyYozTBDZ_ObIT-36" style="edgeStyle=orthogonalEdgeStyle;rounded=0;orthogonalLoop=1;jettySize=auto;html=1;entryX=0;entryY=0.5;entryDx=0;entryDy=0;" edge="1" parent="1" source="ep8b0DQyYozTBDZ_ObIT-27" target="ep8b0DQyYozTBDZ_ObIT-18">
          <mxGeometry relative="1" as="geometry" />
        </mxCell>
        <mxCell id="ep8b0DQyYozTBDZ_ObIT-27" value="VSN normalization" style="rounded=0;whiteSpace=wrap;html=1;fillColor=#CCCCFF;" vertex="1" parent="1">
          <mxGeometry x="140" y="490" width="100" height="40" as="geometry" />
        </mxCell>
        <mxCell id="ep8b0DQyYozTBDZ_ObIT-89" style="edgeStyle=orthogonalEdgeStyle;rounded=0;orthogonalLoop=1;jettySize=auto;html=1;entryX=0;entryY=0.5;entryDx=0;entryDy=0;strokeColor=#000000;fillColor=#000000;" edge="1" parent="1" source="ep8b0DQyYozTBDZ_ObIT-37" target="ep8b0DQyYozTBDZ_ObIT-51">
          <mxGeometry relative="1" as="geometry" />
        </mxCell>
        <mxCell id="ep8b0DQyYozTBDZ_ObIT-92" style="edgeStyle=orthogonalEdgeStyle;rounded=0;orthogonalLoop=1;jettySize=auto;html=1;strokeColor=#000000;fillColor=#000000;entryX=0;entryY=0.5;entryDx=0;entryDy=0;" edge="1" parent="1" source="ep8b0DQyYozTBDZ_ObIT-37" target="ep8b0DQyYozTBDZ_ObIT-83">
          <mxGeometry relative="1" as="geometry">
            <mxPoint x="350" y="680" as="targetPoint" />
          </mxGeometry>
        </mxCell>
        <mxCell id="ep8b0DQyYozTBDZ_ObIT-97" style="edgeStyle=orthogonalEdgeStyle;rounded=0;orthogonalLoop=1;jettySize=auto;html=1;entryX=0;entryY=0.5;entryDx=0;entryDy=0;strokeColor=#000000;fillColor=#000000;" edge="1" parent="1" source="ep8b0DQyYozTBDZ_ObIT-37" target="ep8b0DQyYozTBDZ_ObIT-91">
          <mxGeometry relative="1" as="geometry">
            <Array as="points">
              <mxPoint x="350" y="620" />
              <mxPoint x="570" y="620" />
              <mxPoint x="570" y="580" />
            </Array>
          </mxGeometry>
        </mxCell>
        <mxCell id="ep8b0DQyYozTBDZ_ObIT-37" value="&lt;span style=&quot;&quot;&gt;TopTable&lt;br&gt;&amp;nbsp;of differentially expressed &lt;br&gt;genes&lt;/span&gt;" style="ellipse;whiteSpace=wrap;html=1;rounded=1;fillColor=#FFCCE6;" vertex="1" parent="1">
          <mxGeometry x="300" y="380" width="100" height="70" as="geometry" />
        </mxCell>
        <mxCell id="ep8b0DQyYozTBDZ_ObIT-116" style="edgeStyle=orthogonalEdgeStyle;rounded=0;orthogonalLoop=1;jettySize=auto;html=1;entryX=0.5;entryY=0;entryDx=0;entryDy=0;strokeColor=#000000;fillColor=#000000;" edge="1" parent="1" source="ep8b0DQyYozTBDZ_ObIT-40" target="ep8b0DQyYozTBDZ_ObIT-109">
          <mxGeometry relative="1" as="geometry" />
        </mxCell>
        <mxCell id="ep8b0DQyYozTBDZ_ObIT-40" value="scRNA-seq counts of AML patinets" style="ellipse;whiteSpace=wrap;html=1;rounded=1;strokeColor=#000000;fillColor=#B9E0A5;" vertex="1" parent="1">
          <mxGeometry x="750" y="200" width="100" height="70" as="geometry" />
        </mxCell>
        <mxCell id="ep8b0DQyYozTBDZ_ObIT-45" value="Pathways activity analysis with&amp;nbsp;&lt;span style=&quot;color: rgb(0, 0, 0);&quot;&gt;PROGENy&lt;/span&gt;" style="rounded=1;whiteSpace=wrap;html=1;fillColor=#FFCCCC;strokeColor=#666666;fontColor=#333333;" vertex="1" parent="1">
          <mxGeometry x="450" y="120" width="100" height="60" as="geometry" />
        </mxCell>
        <mxCell id="ep8b0DQyYozTBDZ_ObIT-57" style="edgeStyle=orthogonalEdgeStyle;rounded=0;orthogonalLoop=1;jettySize=auto;html=1;entryX=0.5;entryY=0;entryDx=0;entryDy=0;strokeColor=#000000;fillColor=#000000;" edge="1" parent="1" source="ep8b0DQyYozTBDZ_ObIT-47" target="ep8b0DQyYozTBDZ_ObIT-56">
          <mxGeometry relative="1" as="geometry" />
        </mxCell>
        <mxCell id="ep8b0DQyYozTBDZ_ObIT-47" value="Pathway activity counting&amp;nbsp;" style="rounded=0;whiteSpace=wrap;html=1;strokeColor=#000000;fillColor=#FFCCCC;" vertex="1" parent="1">
          <mxGeometry x="450" y="220" width="100" height="50" as="geometry" />
        </mxCell>
        <mxCell id="ep8b0DQyYozTBDZ_ObIT-55" style="edgeStyle=orthogonalEdgeStyle;rounded=0;orthogonalLoop=1;jettySize=auto;html=1;exitX=0.5;exitY=1;exitDx=0;exitDy=0;entryX=0.5;entryY=0;entryDx=0;entryDy=0;strokeColor=#000000;fillColor=#000000;entryPerimeter=0;" edge="1" parent="1" source="ep8b0DQyYozTBDZ_ObIT-51" target="ep8b0DQyYozTBDZ_ObIT-70">
          <mxGeometry relative="1" as="geometry">
            <mxPoint x="500" y="485" as="targetPoint" />
          </mxGeometry>
        </mxCell>
        <mxCell id="ep8b0DQyYozTBDZ_ObIT-51" value="Running an enrichment analysis&amp;nbsp;" style="rounded=0;whiteSpace=wrap;html=1;strokeColor=#000000;fillColor=#FFCCCC;" vertex="1" parent="1">
          <mxGeometry x="450" y="390" width="100" height="50" as="geometry" />
        </mxCell>
        <mxCell id="ep8b0DQyYozTBDZ_ObIT-56" value="Visualization pathway activity on heatmap" style="rounded=0;whiteSpace=wrap;html=1;strokeColor=#000000;fillColor=#FFCCCC;" vertex="1" parent="1">
          <mxGeometry x="450" y="300" width="100" height="60" as="geometry" />
        </mxCell>
        <mxCell id="ep8b0DQyYozTBDZ_ObIT-62" value="Transcription factors activity&amp;nbsp; analysis with DoRothEA" style="rounded=1;whiteSpace=wrap;html=1;fillColor=#FFCC99;strokeColor=#666666;fontColor=#333333;" vertex="1" parent="1">
          <mxGeometry x="600" y="120" width="100" height="60" as="geometry" />
        </mxCell>
        <mxCell id="ep8b0DQyYozTBDZ_ObIT-100" style="edgeStyle=orthogonalEdgeStyle;rounded=0;orthogonalLoop=1;jettySize=auto;html=1;strokeColor=#000000;fillColor=#000000;" edge="1" parent="1" source="ep8b0DQyYozTBDZ_ObIT-65">
          <mxGeometry relative="1" as="geometry">
            <mxPoint x="650" y="400" as="targetPoint" />
          </mxGeometry>
        </mxCell>
        <mxCell id="ep8b0DQyYozTBDZ_ObIT-65" value="TFs activity statistics" style="rounded=0;whiteSpace=wrap;html=1;strokeColor=#000000;fillColor=#FFCC99;" vertex="1" parent="1">
          <mxGeometry x="600" y="315" width="100" height="50" as="geometry" />
        </mxCell>
        <mxCell id="ep8b0DQyYozTBDZ_ObIT-72" style="edgeStyle=orthogonalEdgeStyle;rounded=0;orthogonalLoop=1;jettySize=auto;html=1;strokeColor=#000000;fillColor=#000000;" edge="1" parent="1" source="ep8b0DQyYozTBDZ_ObIT-70">
          <mxGeometry relative="1" as="geometry">
            <mxPoint x="500" y="560" as="targetPoint" />
          </mxGeometry>
        </mxCell>
        <mxCell id="ep8b0DQyYozTBDZ_ObIT-70" value="NES and significance of each pathway" style="rounded=0;whiteSpace=wrap;html=1;strokeColor=#000000;fillColor=#FFCCCC;" vertex="1" parent="1">
          <mxGeometry x="450" y="470" width="100" height="60" as="geometry" />
        </mxCell>
        <mxCell id="ep8b0DQyYozTBDZ_ObIT-84" style="edgeStyle=orthogonalEdgeStyle;rounded=0;orthogonalLoop=1;jettySize=auto;html=1;entryX=0.5;entryY=0;entryDx=0;entryDy=0;strokeColor=#000000;fillColor=#000000;" edge="1" parent="1" source="ep8b0DQyYozTBDZ_ObIT-83" target="ep8b0DQyYozTBDZ_ObIT-65">
          <mxGeometry relative="1" as="geometry" />
        </mxCell>
        <mxCell id="ep8b0DQyYozTBDZ_ObIT-83" value="&lt;span style=&quot;color: rgb(51, 51, 51);&quot;&gt;DoRothEA&lt;br&gt;&lt;/span&gt;Regulons" style="ellipse;whiteSpace=wrap;html=1;rounded=1;fillColor=#FFCC99;" vertex="1" parent="1">
          <mxGeometry x="600" y="210" width="100" height="70" as="geometry" />
        </mxCell>
        <mxCell id="ep8b0DQyYozTBDZ_ObIT-88" style="edgeStyle=orthogonalEdgeStyle;rounded=0;orthogonalLoop=1;jettySize=auto;html=1;exitX=0.5;exitY=1;exitDx=0;exitDy=0;strokeColor=#000000;fillColor=#000000;" edge="1" parent="1" source="ep8b0DQyYozTBDZ_ObIT-51" target="ep8b0DQyYozTBDZ_ObIT-51">
          <mxGeometry relative="1" as="geometry" />
        </mxCell>
        <mxCell id="ep8b0DQyYozTBDZ_ObIT-95" style="edgeStyle=orthogonalEdgeStyle;rounded=0;orthogonalLoop=1;jettySize=auto;html=1;entryX=0;entryY=0.5;entryDx=0;entryDy=0;strokeColor=#000000;fillColor=#000000;exitX=1;exitY=0.5;exitDx=0;exitDy=0;" edge="1" parent="1" source="ep8b0DQyYozTBDZ_ObIT-91" target="ep8b0DQyYozTBDZ_ObIT-65">
          <mxGeometry relative="1" as="geometry">
            <Array as="points">
              <mxPoint x="570" y="580" />
              <mxPoint x="570" y="340" />
            </Array>
          </mxGeometry>
        </mxCell>
        <mxCell id="ep8b0DQyYozTBDZ_ObIT-96" style="edgeStyle=orthogonalEdgeStyle;rounded=0;orthogonalLoop=1;jettySize=auto;html=1;exitX=1;exitY=0.5;exitDx=0;exitDy=0;strokeColor=#000000;fillColor=#000000;" edge="1" parent="1" source="ep8b0DQyYozTBDZ_ObIT-91">
          <mxGeometry relative="1" as="geometry">
            <mxPoint x="540" y="580" as="targetPoint" />
          </mxGeometry>
        </mxCell>
        <mxCell id="ep8b0DQyYozTBDZ_ObIT-91" value="checkpoint" style="rhombus;whiteSpace=wrap;html=1;rounded=1;shadow=0;strokeColor=#000000;fillColor=#FF9999;" vertex="1" parent="1">
          <mxGeometry x="460" y="560" width="80" height="40" as="geometry" />
        </mxCell>
        <mxCell id="ep8b0DQyYozTBDZ_ObIT-99" value="scRNA-seq&amp;nbsp;&lt;br&gt;analysis" style="rounded=1;whiteSpace=wrap;html=1;fillColor=#B9E0A5;strokeColor=#666666;fontColor=#333333;" vertex="1" parent="1">
          <mxGeometry x="750" y="120" width="100" height="60" as="geometry" />
        </mxCell>
        <mxCell id="ep8b0DQyYozTBDZ_ObIT-123" style="edgeStyle=orthogonalEdgeStyle;rounded=0;orthogonalLoop=1;jettySize=auto;html=1;entryX=0;entryY=0.5;entryDx=0;entryDy=0;strokeColor=#000000;fillColor=#000000;" edge="1" parent="1" source="ep8b0DQyYozTBDZ_ObIT-101" target="ep8b0DQyYozTBDZ_ObIT-120">
          <mxGeometry relative="1" as="geometry">
            <Array as="points">
              <mxPoint x="650" y="520" />
            </Array>
          </mxGeometry>
        </mxCell>
        <mxCell id="ep8b0DQyYozTBDZ_ObIT-127" style="edgeStyle=orthogonalEdgeStyle;rounded=0;orthogonalLoop=1;jettySize=auto;html=1;entryX=0.5;entryY=0;entryDx=0;entryDy=0;strokeColor=#000000;fillColor=#000000;" edge="1" parent="1" source="ep8b0DQyYozTBDZ_ObIT-101" target="ep8b0DQyYozTBDZ_ObIT-125">
          <mxGeometry relative="1" as="geometry" />
        </mxCell>
        <mxCell id="ep8b0DQyYozTBDZ_ObIT-101" value="&lt;font color=&quot;#333333&quot;&gt;Top-100 differentially&amp;nbsp; active TFs&lt;/font&gt;" style="ellipse;whiteSpace=wrap;html=1;rounded=1;fillColor=#FFCC99;" vertex="1" parent="1">
          <mxGeometry x="600" y="400" width="100" height="70" as="geometry" />
        </mxCell>
        <mxCell id="ep8b0DQyYozTBDZ_ObIT-117" style="edgeStyle=orthogonalEdgeStyle;rounded=0;orthogonalLoop=1;jettySize=auto;html=1;entryX=0.5;entryY=0;entryDx=0;entryDy=0;strokeColor=#000000;fillColor=#000000;" edge="1" parent="1" source="ep8b0DQyYozTBDZ_ObIT-109" target="ep8b0DQyYozTBDZ_ObIT-111">
          <mxGeometry relative="1" as="geometry" />
        </mxCell>
        <mxCell id="ep8b0DQyYozTBDZ_ObIT-109" value="Quality control and filtering with ScanPy" style="rounded=0;whiteSpace=wrap;html=1;strokeColor=#000000;fillColor=#B9E0A5;" vertex="1" parent="1">
          <mxGeometry x="750" y="290" width="100" height="50" as="geometry" />
        </mxCell>
        <mxCell id="ep8b0DQyYozTBDZ_ObIT-118" style="edgeStyle=orthogonalEdgeStyle;rounded=0;orthogonalLoop=1;jettySize=auto;html=1;entryX=0.5;entryY=0;entryDx=0;entryDy=0;strokeColor=#000000;fillColor=#000000;" edge="1" parent="1" source="ep8b0DQyYozTBDZ_ObIT-111" target="ep8b0DQyYozTBDZ_ObIT-112">
          <mxGeometry relative="1" as="geometry" />
        </mxCell>
        <mxCell id="ep8b0DQyYozTBDZ_ObIT-111" value="Integration with Harmony" style="rounded=0;whiteSpace=wrap;html=1;strokeColor=#000000;fillColor=#B9E0A5;" vertex="1" parent="1">
          <mxGeometry x="750" y="360" width="100" height="40" as="geometry" />
        </mxCell>
        <mxCell id="ep8b0DQyYozTBDZ_ObIT-121" style="edgeStyle=orthogonalEdgeStyle;rounded=0;orthogonalLoop=1;jettySize=auto;html=1;entryX=0.5;entryY=0;entryDx=0;entryDy=0;strokeColor=#000000;fillColor=#000000;" edge="1" parent="1" source="ep8b0DQyYozTBDZ_ObIT-112" target="ep8b0DQyYozTBDZ_ObIT-120">
          <mxGeometry relative="1" as="geometry" />
        </mxCell>
        <mxCell id="ep8b0DQyYozTBDZ_ObIT-112" value="Cells clustering using leiden method&amp;nbsp;" style="rounded=0;whiteSpace=wrap;html=1;strokeColor=#000000;fillColor=#B9E0A5;" vertex="1" parent="1">
          <mxGeometry x="750" y="420" width="100" height="50" as="geometry" />
        </mxCell>
        <mxCell id="ep8b0DQyYozTBDZ_ObIT-122" style="edgeStyle=orthogonalEdgeStyle;rounded=0;orthogonalLoop=1;jettySize=auto;html=1;entryX=0.5;entryY=1;entryDx=0;entryDy=0;strokeColor=#000000;fillColor=#000000;" edge="1" parent="1" source="ep8b0DQyYozTBDZ_ObIT-113" target="ep8b0DQyYozTBDZ_ObIT-120">
          <mxGeometry relative="1" as="geometry" />
        </mxCell>
        <mxCell id="ep8b0DQyYozTBDZ_ObIT-113" value="Cells types annotation&amp;nbsp;" style="ellipse;whiteSpace=wrap;html=1;rounded=1;strokeColor=#000000;fillColor=#B9E0A5;" vertex="1" parent="1">
          <mxGeometry x="750" y="570" width="100" height="60" as="geometry" />
        </mxCell>
        <mxCell id="ep8b0DQyYozTBDZ_ObIT-120" value="Visualizing TFs expression levels in different cell types&amp;nbsp;" style="rounded=0;whiteSpace=wrap;html=1;strokeColor=#000000;fillColor=#B9E0A5;" vertex="1" parent="1">
          <mxGeometry x="750" y="490" width="100" height="60" as="geometry" />
        </mxCell>
        <mxCell id="ep8b0DQyYozTBDZ_ObIT-128" value="" style="edgeStyle=orthogonalEdgeStyle;rounded=0;orthogonalLoop=1;jettySize=auto;html=1;strokeColor=#000000;fillColor=#000000;" edge="1" parent="1" source="ep8b0DQyYozTBDZ_ObIT-125" target="ep8b0DQyYozTBDZ_ObIT-101">
          <mxGeometry relative="1" as="geometry" />
        </mxCell>
        <mxCell id="ep8b0DQyYozTBDZ_ObIT-125" value="Literature research" style="rounded=0;whiteSpace=wrap;html=1;strokeColor=#000000;fillColor=#FFCC99;" vertex="1" parent="1">
          <mxGeometry x="600" y="570" width="100" height="50" as="geometry" />
        </mxCell>
      </root>
    </mxGraphModel>
  </diagram>
</mxfile>
